<svg width="46" height="46" viewBox="0 0 46 46" fill="none" xmlns="http://www.w3.org/2000/svg">
<path d="M23 0C10.3201 0 0 10.3202 0 23C0 35.6798 10.3201 46 23 46C35.6799 46 46 35.6798 46 23C46 10.3202 35.6799 0 23 0ZM21.1844 3.92318C21.127 4.52671 21.0833 5.13262 21.0833 5.75C21.0833 16.3134 29.6866 24.9167 40.25 24.9167C40.8674 24.9167 41.4733 24.873 42.0768 24.8156C41.2205 33.9675 33.9675 41.2205 24.8156 42.0768C24.873 41.4733 24.9167 40.8674 24.9167 40.25C24.9167 29.6866 16.3134 21.0833 5.75 21.0833C5.13262 21.0833 4.52671 21.127 3.92318 21.1844C4.77954 12.0325 12.0325 4.77954 21.1844 3.92318ZM25.0252 3.94189C34.0088 4.88102 41.119 11.9912 42.0581 20.9748C41.4646 21.044 40.8629 21.0833 40.25 21.0833C31.7579 21.0833 24.9167 14.2421 24.9167 5.75C24.9167 5.13711 24.956 4.53544 25.0252 3.94189ZM5.75 24.9167C14.2421 24.9167 21.0833 31.7579 21.0833 40.25C21.0833 40.8629 21.044 41.4646 20.9748 42.0581C11.9912 41.119 4.88102 34.0088 3.94189 25.0252C4.53544 24.956 5.13711 24.9167 5.75 24.9167Z" fill="white"/>
</svg>
