<svg width="62" height="62" viewBox="0 0 62 62" fill="none" xmlns="http://www.w3.org/2000/svg">
<path d="M35.2884 18.1351C38.545 18.1351 41.1849 15.4951 41.1849 12.2386C41.1849 8.9821 38.545 6.34216 35.2884 6.34216C32.0319 6.34216 29.392 8.9821 29.392 12.2386C29.392 15.4951 32.0319 18.1351 35.2884 18.1351Z" stroke="white" stroke-width="1.66" stroke-linecap="round" stroke-linejoin="round"/>
<path d="M47.2721 15.991C46.5669 15.9465 45.8731 16.1851 45.3446 16.6541C44.816 17.123 44.4965 17.7835 44.4568 18.4889C44.4568 18.5318 44.0901 22.9252 40.9746 23.6114C38.4108 23.7533 35.8461 23.3484 33.4508 22.4235C30.2295 21.1823 26.7538 20.7473 23.326 21.1563C19.2935 21.9685 16.1457 25.1273 15.3476 29.1626C15.1058 30.6144 16.0837 31.9882 17.5346 32.2352C17.6799 32.259 17.8269 32.2712 17.9742 32.2717C19.2743 32.2666 20.3805 31.3228 20.59 30.0396C21.0391 28.1578 22.5587 26.7198 24.4624 26.3752C26.1378 26.1844 27.8346 26.354 29.439 26.8726L26.2442 34.9068C26.2064 34.9953 26.1749 35.0863 26.1499 35.1791L24.5975 40.8097C23.9178 44.2404 22.7514 44.8622 17.6182 46.2709L14.1876 47.2058C12.9021 47.5609 12.0753 48.8096 12.2504 50.1317C12.4254 51.4537 13.5487 52.4443 14.8823 52.4525C15.1184 52.4537 15.3535 52.4227 15.5813 52.3603L19.0119 51.4233C23.8492 50.0961 28.4162 48.8503 29.7585 42.0512L30.2152 40.4023C32.9631 43.6526 33.8534 48.0845 32.5738 52.1438C32.1077 53.5397 32.8584 55.0497 34.2527 55.5209C34.5235 55.6122 34.8074 55.6586 35.0932 55.6581C36.2381 55.6552 37.2528 54.9203 37.6126 53.8334C39.9001 46.9467 37.6649 39.3638 32.0077 34.8189L34.6043 28.2878C37.0327 29.0564 39.6079 29.2429 42.1218 28.8324C47.7395 27.5974 49.5685 21.9711 49.7636 18.8299C49.8118 18.1225 49.5759 17.4252 49.1082 16.8923C48.6405 16.3594 47.9797 16.035 47.2721 15.991Z" stroke="white" stroke-width="1.66" stroke-linecap="round" stroke-linejoin="round"/>
</svg>
