<svg width="50" height="50" viewBox="0 0 50 50" fill="none" xmlns="http://www.w3.org/2000/svg">
<path d="M44.7166 0C44.2285 0 43.8041 0.322587 43.6682 0.789491L36.3336 26.3206C35.056 30.7519 31.0406 33.6849 26.5159 33.6849H25.1619C25.0982 33.6764 25.0388 33.6679 24.9751 33.6679C24.9242 33.6722 24.869 33.6764 24.8181 33.6849H9.94934C9.88567 33.6764 9.82625 33.6679 9.76258 33.6679C9.71164 33.6722 9.65646 33.6764 9.60553 33.6849H8.14964C3.63341 33.6849 6.10352e-05 37.4329 6.10352e-05 41.8345C6.10352e-05 46.3295 3.65464 49.9841 8.14964 49.9841H9.59704C9.71589 50.0053 9.83473 50.0053 9.94934 49.9841H23.7994C24.088 49.9841 24.3766 49.9629 24.6653 49.9501C24.9284 50.0308 25.2128 50.0096 25.4633 49.8907C32.0593 49.2243 37.5815 44.6487 39.5085 38.1205C39.5085 38.1205 39.5085 38.1163 39.5085 38.112L40.3787 35.0729C40.3829 35.0687 40.3829 35.0687 40.3787 35.0644L49.912 1.38373C50.0011 1.05265 49.9375 0.700354 49.7295 0.428702C49.5257 0.161294 49.2031 0 48.8636 0H44.7166ZM45.5316 2.17322H47.4247L38.2903 34.4744L37.4202 37.5178C35.8158 42.9466 31.4354 46.7752 26.0787 47.6283V35.8581H26.5159C31.9829 35.8581 36.8769 32.2757 38.4219 26.9233C38.4262 26.9233 38.4262 26.9233 38.4219 26.9233L45.5316 2.17322ZM14.126 5.43305C10.4035 5.43305 7.02907 6.04852 4.49082 7.10542C3.21745 7.63599 2.15206 8.27692 1.34984 9.06641C0.619769 9.78374 0.118909 10.6836 0.0340176 11.6768C0.012795 11.766 6.10352e-05 11.8593 6.10352e-05 11.9527V19.559C6.10352e-05 20.6668 0.551856 21.6728 1.35408 22.4665C2.1563 23.2603 3.23018 23.8927 4.49931 24.419C7.04605 25.4759 10.4205 26.0787 14.126 26.0787C17.8315 26.0787 21.2059 25.4759 23.7527 24.419C25.0218 23.8927 26.0957 23.2603 26.8979 22.4665C27.7001 21.6728 28.2519 20.6668 28.2519 19.559V11.9527C28.2519 11.8593 28.2392 11.766 28.218 11.6768C28.1331 10.6878 27.6365 9.78374 26.9022 9.06641C26.0999 8.27692 25.0345 7.63599 23.7654 7.10542C21.2229 6.04852 17.8485 5.43305 14.126 5.43305ZM14.126 7.60627C17.6023 7.60627 20.7518 8.20476 22.9292 9.1131C24.0201 9.56727 24.8605 10.1021 25.3784 10.6114C25.8962 11.1208 26.0787 11.5537 26.0787 11.9527C26.0787 12.3517 25.8962 12.7847 25.3784 13.294C24.8605 13.8033 24.0201 14.3382 22.9292 14.7923C20.7518 15.7007 17.6023 16.2992 14.126 16.2992C10.6497 16.2992 7.50022 15.7007 5.32276 14.7923C4.2319 14.3382 3.39147 13.8033 2.87364 13.294C2.3558 12.7847 2.17328 12.3517 2.17328 11.9527C2.17328 11.5537 2.3558 11.1208 2.87364 10.6114C3.39147 10.1021 4.2319 9.56727 5.32276 9.1131C7.50022 8.20476 10.6497 7.60627 14.126 7.60627ZM2.17328 15.5224C2.83544 16.0105 3.60795 16.4307 4.49082 16.7958C7.02907 17.8569 10.4035 18.4724 14.126 18.4724C17.8485 18.4724 21.2229 17.8569 23.7654 16.7958C24.644 16.4307 25.4166 16.0105 26.0787 15.5224V19.559C26.0787 19.9707 25.8962 20.4037 25.3741 20.9173C24.852 21.4308 24.0074 21.9614 22.9208 22.4113C20.739 23.3154 17.5896 23.9054 14.126 23.9054C10.6624 23.9054 7.51295 23.3154 5.33124 22.4113C4.24463 21.9614 3.39996 21.4308 2.87788 20.9173C2.3558 20.4037 2.17328 19.9707 2.17328 19.559V15.5224ZM8.14964 35.8581H8.69295V47.8109H8.14964C4.8219 47.8109 2.17328 45.1623 2.17328 41.8345C2.17328 38.6299 4.84312 35.8581 8.14964 35.8581ZM10.8662 35.8581H23.9055V47.8066C23.8673 47.8066 23.8333 47.8109 23.7994 47.8109H10.8662V35.8581Z" fill="white"/>
</svg>
