<svg width="42" height="50" viewBox="0 0 42 50" fill="none" xmlns="http://www.w3.org/2000/svg">
<path d="M24.5899 0C17.9063 0 13.6172 0.796875 10.8711 3.03125C8.12504 5.26562 7.30863 8.78906 7.30863 13.5C7.30863 13.6328 7.36723 14.0312 7.37113 14.1875C5.20316 13.8008 2.9766 14.6016 1.55863 16.4062C-0.121055 18.543 -0.628868 21.9297 0.964882 25.9688C3.41019 32.3867 6.09769 35.8398 8.62113 37.8125C9.84769 38.7695 11.0274 39.3633 12.0586 39.7812C12.3907 41.8398 12.6953 43.582 13.0274 44.9375C13.3789 46.3672 13.6641 47.3555 14.4024 48.0938V48.125C15.2539 48.9141 16.461 49.3594 18.1836 49.625C19.9063 49.8906 22.2266 50 25.4961 50C28.7774 50 31.1953 49.8477 32.9649 49.5C34.7149 49.1562 35.9688 48.6016 36.5586 47.4688H36.5899C36.5938 47.4609 36.586 47.4453 36.5899 47.4375C37.4453 45.8359 37.6758 43.3438 37.8399 41.0625C38 38.8555 37.9961 37.043 37.9961 36.9062C39.3907 34.6055 40.2422 31.3555 40.8711 27.7188C41.6719 23.0781 41.9961 17.8516 41.9961 13.5C41.9961 8.78516 41.1407 5.26172 38.3711 3.03125C35.6016 0.800781 31.2735 0 24.5899 0ZM24.5899 2C31.1055 2 34.9883 2.875 37.1211 4.59375C39.2539 6.3125 39.9961 9.01562 39.9961 13.5C39.9961 17.75 39.6758 22.8906 38.9024 27.375C38.1289 31.8594 36.7852 35.6797 35.2774 37.1875C35.0391 37.4258 33.7032 38.0352 31.9336 38.4062C30.1641 38.7773 27.9571 39.0273 25.7149 39.1875C23.4727 39.3477 21.1758 39.4062 19.3086 39.3438C17.4414 39.2812 15.9063 39.0508 15.4649 38.875C13.9024 38.2617 12.0508 37.9219 9.87113 36.2188C7.69144 34.5156 5.19535 31.4336 2.83988 25.25V25.2188C1.43363 21.6602 1.94926 19.1133 3.12113 17.625C4.24223 16.1992 5.95707 15.7539 7.58988 16.3125C7.71879 17.7656 7.76957 18.9883 8.02738 20.8125C8.44535 23.7773 8.88676 26.5508 9.46488 27.9688C9.57426 28.3359 9.87894 28.6055 10.2539 28.6719C10.6289 28.7344 11.0078 28.582 11.2344 28.2734C11.4571 27.9648 11.4844 27.5547 11.3086 27.2188C10.9883 26.4375 10.4063 23.4414 9.99613 20.5312C9.58597 17.6211 9.30863 14.5898 9.30863 13.5C9.30863 9.01172 10.0157 6.27734 12.1211 4.5625C14.2266 2.84766 18.0743 2 24.5899 2ZM35.9024 39.2188C35.8789 39.7773 35.8868 40.2852 35.8399 40.9375C35.6797 43.1445 35.2422 45.7305 34.8086 46.5312V46.5625C34.6875 46.8008 34.1172 47.2305 32.5899 47.5312C31.0625 47.832 28.7149 48 25.4961 48C22.2657 48 20.0235 47.8906 18.4961 47.6562C16.9922 47.4258 16.2578 47.0938 15.8086 46.6875L15.7774 46.6562C15.7032 46.5703 15.2852 45.7656 14.9649 44.4688C14.7188 43.4609 14.4961 42.0898 14.2461 40.5625C14.3985 40.6133 14.586 40.668 14.7149 40.7188C15.7735 41.1406 17.2891 41.2773 19.2461 41.3438C21.2032 41.4102 23.5313 41.3516 25.8399 41.1875C28.1485 41.0234 30.4336 40.7422 32.3399 40.3438C33.7696 40.0469 34.9844 39.7539 35.9024 39.2188Z" fill="white"/>
</svg>
