<svg width="46" height="46" viewBox="0 0 46 46" fill="none" xmlns="http://www.w3.org/2000/svg">
<path d="M23 0C22.9482 0.00120665 22.8967 0.00643068 22.8457 0.015625C10.2289 0.10101 0 10.3623 0 23C0 35.6905 10.3105 46 23 46C35.6895 46 46 35.6905 46 23C46 10.3637 35.7732 0.103138 23.1582 0.015625C23.106 0.00622704 23.0531 0.0010022 23 0ZM23 2C24.3434 2 25.6548 2.13069 26.9277 2.37109L23 4.82227L19.0723 2.37109C20.3452 2.13069 21.6566 2 23 2ZM16.4004 3.0625L22.0254 6.57031V12.4727L13.3555 18.7715L7.66797 16.9375L6.08789 10.5801C8.64072 7.10803 12.2209 4.44294 16.4004 3.0625ZM29.5996 3.0625C33.78 4.44323 37.3611 7.1089 39.9141 10.582L38.3223 16.9902L32.6465 18.7715L24.0254 12.5098V6.53906L29.5996 3.0625ZM4.59766 12.8789L5.71094 17.3594L2.17383 20.3301C2.51252 17.656 3.3527 15.1403 4.59766 12.8789ZM41.4043 12.8809C42.6588 15.1603 43.501 17.6986 43.834 20.3965L40.2793 17.4082L41.4043 12.8809ZM23 14.2363L31.2871 20.2578L28.123 30H17.877L14.7129 20.2578L23 14.2363ZM7.05273 18.8418L12.7461 20.6738L16.043 30.8281L12.5195 35.6816L5.9375 35.2188C3.48433 31.7973 2.02015 27.6186 2.00195 23.0859L7.05273 18.8418ZM38.9355 18.8926L43.9961 23.1445C43.9656 27.6667 42.4974 31.8345 40.043 35.2461L33.4473 35.7129L29.959 30.8203L33.2539 20.6777L38.9355 18.8926ZM17.6641 32H28.3457L31.8262 36.8828L29.3379 43.0254C27.338 43.6566 25.2101 44 23 44C20.7791 44 18.6412 43.6529 16.6328 43.0156L14.1387 36.8555L17.6641 32ZM7.68555 37.3457L12.3125 37.6719L14.0566 41.9824C11.6443 40.8451 9.48727 39.2685 7.68555 37.3457ZM38.2891 37.375C36.4848 39.2934 34.3253 40.8652 31.9121 41.998L33.6523 37.7031L38.2891 37.375Z" fill="white"/>
</svg>
