<svg width="31" height="20" viewBox="0 0 31 20" fill="none" xmlns="http://www.w3.org/2000/svg">
<path d="M7.93947 10.4518C7.93947 7.45741 10.3221 5.02995 13.2611 5.02995H25.6783C28.6174 5.02995 31 7.45741 31 10.4518C31 13.4462 28.6174 15.8737 25.6783 15.8737H13.2611C10.3221 15.8737 7.93947 13.4462 7.93947 10.4518Z" fill="#003366" fill-opacity="0.46"/>
<path d="M0.89757 11.5714C-0.29919 10.8786 -0.29919 9.12142 0.89757 8.42864L15.0456 0.238586C16.2282 -0.445969 17.6958 0.424234 17.6958 1.80995L17.6958 18.1901C17.6958 19.5758 16.2282 20.446 15.0456 19.7614L0.89757 11.5714Z" fill="#003366" fill-opacity="0.46"/>
<path d="M8.42725 10.4066C8.42725 7.71166 10.6561 5.52696 13.4056 5.52696H25.0217C27.7711 5.52696 30 7.71166 30 10.4066C30 13.1016 27.7711 15.2863 25.0217 15.2863H13.4056C10.6561 15.2863 8.42725 13.1016 8.42725 10.4066Z" fill="white"/>
<path d="M1.83966 11.4142C0.720113 10.7907 0.720112 9.20928 1.83966 8.58578L15.075 1.21473C16.1812 0.598628 17.5542 1.38181 17.5542 2.62895L17.5542 17.371C17.5542 18.6182 16.1812 19.4014 15.075 18.7853L1.83966 11.4142Z" fill="white"/>
</svg>
