<svg width="47" height="46" viewBox="0 0 47 46" fill="none" xmlns="http://www.w3.org/2000/svg">
<path d="M23.9812 0C11.2821 0 0.981201 10.3009 0.981201 23C0.981201 35.6991 11.2821 46 23.9812 46C36.6803 46 46.9812 35.6991 46.9812 23C46.9812 10.3009 36.6803 0 23.9812 0ZM25.3836 3.64634C29.051 3.91281 32.4309 5.21006 35.2568 7.23659C32.2556 9.59268 25.8324 15.7564 26.1129 25.0756C25.4257 25.1037 24.7175 25.1317 23.9812 25.1317C22.5928 25.1317 21.3236 25.0546 20.1105 24.9634C20.0824 24.3253 20.0544 23.6802 20.0544 23C20.0544 16.4997 21.3516 11.7454 22.6349 8.63902C23.9181 5.53262 25.1032 4.20732 25.1032 4.20732C25.2364 4.04604 25.3346 3.84969 25.3836 3.64634ZM21.8495 3.70244C21.3025 4.59299 20.6364 5.89726 19.9422 7.57317C18.5327 10.9951 17.1373 16.121 17.1373 23C17.1373 23.554 17.1794 24.0939 17.1934 24.6268C15.5385 24.3884 14.094 24.136 12.8178 23.7854C12.6635 15.5741 10.9245 10.5393 10.3495 9.1439C13.3717 6.17073 17.4108 4.19329 21.8495 3.70244ZM37.5007 9.0878C40.4178 11.9207 42.4233 15.6652 43.1105 19.8585C42.9632 19.9427 42.83 20.0619 42.7178 20.1951C42.7178 20.1951 41.6379 21.282 38.6788 22.5512C36.4769 23.4909 33.2864 24.4726 28.9178 24.9073C28.7074 16.3244 35.2498 10.7497 37.5007 9.0878ZM8.21779 11.7244C8.86291 13.793 9.71138 17.5095 9.90071 22.7756C9.71138 22.6985 9.45894 22.6284 9.28364 22.5512C6.32449 21.282 5.24462 20.1951 5.24462 20.1951C5.13242 20.0619 4.99919 19.9427 4.85193 19.8585C5.34279 16.8503 6.51382 14.1015 8.21779 11.7244ZM4.57144 23.2805C5.39187 23.8485 6.56992 24.5637 8.16169 25.2439C8.66657 25.4613 9.30468 25.7067 9.90071 25.9171C9.80254 28.6869 9.39583 30.6503 8.94705 31.8634C8.44218 33.2378 8.04949 33.6024 8.04949 33.6024C7.98638 33.6726 7.93029 33.7497 7.8812 33.8268C5.83364 30.8046 4.62754 27.1863 4.57144 23.2805ZM43.391 23.2805C43.3138 28.4345 41.2452 33.1396 37.8934 36.5756C36.9047 36.211 30.741 33.7777 29.1983 27.8244C33.8474 27.3616 37.3254 26.3027 39.8007 25.2439C41.3925 24.5637 42.5705 23.8485 43.391 23.2805ZM12.7617 26.7585C14.1291 27.1021 15.6647 27.4317 17.3617 27.6561C17.8105 32.2421 18.8693 35.8253 19.9422 38.4268C20.6364 40.1027 21.3025 41.407 21.8495 42.2976C16.9971 41.7576 12.6705 39.4085 9.56413 35.9585C9.83059 35.8604 10.069 35.6851 10.2373 35.4537C10.2373 35.4537 11.0086 34.528 11.6397 32.8171C12.1516 31.4287 12.5934 29.4302 12.7617 26.7585ZM20.3349 27.9366C21.4919 28.0137 22.6839 28.0488 23.9812 28.0488C24.8227 28.0488 25.608 28.0277 26.3934 27.9927C27.6696 34.0232 32.6202 37.2768 35.4251 38.6512C32.5711 40.7479 29.1211 42.0802 25.3836 42.3537C25.3346 42.1503 25.2364 41.954 25.1032 41.7927C25.1032 41.7927 23.9181 40.4674 22.6349 37.361C21.7022 35.1101 20.7836 31.9616 20.3349 27.9366Z" fill="white"/>
</svg>
